<svg width="91" height="90" viewBox="0 0 91 90" fill="none" xmlns="http://www.w3.org/2000/svg">
<circle cx="45.5" cy="45" r="45" fill="#E7FF7A"/>
<path fill-rule="evenodd" clip-rule="evenodd" d="M39.668 32.4994C39.668 35.721 42.2796 38.3327 45.5013 38.3327C48.7229 38.3327 51.3346 35.721 51.3346 32.4994C51.3346 29.2777 48.7229 26.666 45.5013 26.666C42.2796 26.666 39.668 29.2777 39.668 32.4994ZM45.5013 34.9994C44.1206 34.9994 43.0013 33.8801 43.0013 32.4994C43.0013 31.1186 44.1206 29.9993 45.5013 29.9993C46.8821 29.9993 48.0013 31.1186 48.0013 32.4994C48.0013 33.8801 46.8821 34.9994 45.5013 34.9994Z" fill="#2C1551"/>
<path fill-rule="evenodd" clip-rule="evenodd" d="M45.5013 63.3327C42.2796 63.3327 39.668 60.721 39.668 57.4994C39.668 54.2777 42.2796 51.666 45.5013 51.666C48.7229 51.666 51.3346 54.2777 51.3346 57.4994C51.3346 60.721 48.7229 63.3327 45.5013 63.3327ZM43.0013 57.4994C43.0013 58.88 44.1206 59.9994 45.5013 59.9994C46.8821 59.9994 48.0013 58.88 48.0013 57.4994C48.0013 56.1187 46.8821 54.9993 45.5013 54.9993C44.1206 54.9993 43.0013 56.1187 43.0013 57.4994Z" fill="#2C1551"/>
<path d="M33.5878 41.2951C32.0563 42.1794 31.5316 44.1377 32.4158 45.6692C33.2232 47.0677 34.9456 47.646 36.4335 47.0184L53.2743 39.9132C56.311 38.632 59.8265 39.8125 61.4745 42.6669C63.2791 45.7927 62.2081 49.7897 59.0823 51.5944L55.721 53.535C54.9238 53.9952 53.9045 53.7222 53.4443 52.925C52.9841 52.1279 53.2571 51.1085 54.0543 50.6482L57.4156 48.7075C58.9471 47.8234 59.472 45.865 58.5876 44.3335C57.7803 42.935 56.0578 42.3567 54.57 42.9844L37.7292 50.0895C34.6925 51.3707 31.177 50.1902 29.529 47.3359C27.7243 44.21 28.7953 40.2131 31.9211 38.4084L35.2824 36.4677C36.0796 36.0075 37.0989 36.2806 37.5591 37.0778C38.0194 37.8749 37.7462 38.8942 36.9491 39.3545L33.5878 41.2951Z" fill="#2C1551"/>
</svg>
