<svg width="90" height="90" viewBox="0 0 90 90" fill="none" xmlns="http://www.w3.org/2000/svg">
<circle cx="45" cy="45" r="45" fill="#65FBD5"/>
<path d="M45.0026 53.3346C44.0821 53.3346 43.3359 52.5885 43.3359 51.668V38.3346C43.3359 37.4142 44.0821 36.668 45.0026 36.668C45.9231 36.668 46.6693 37.4142 46.6693 38.3346V51.668C46.6693 52.5885 45.9231 53.3346 45.0026 53.3346Z" fill="#2C1551"/>
<path d="M38.3307 53.3346C37.4103 53.3346 36.6641 52.5885 36.6641 51.668V43.3346C36.6641 42.4141 37.4103 41.668 38.3307 41.668C39.2512 41.668 39.9974 42.4141 39.9974 43.3346V51.668C39.9974 52.5885 39.2512 53.3346 38.3307 53.3346Z" fill="#2C1551"/>
<path d="M51.6667 53.3333C50.7462 53.3333 50 52.5872 50 51.6667V46.6667C50 45.7462 50.7462 45 51.6667 45C52.5872 45 53.3333 45.7462 53.3333 46.6667V51.6667C53.3333 52.5872 52.5872 53.3333 51.6667 53.3333Z" fill="#2C1551"/>
<path fill-rule="evenodd" clip-rule="evenodd" d="M30 33.3333C30 31.4924 31.4924 30 33.3333 30H56.6667C58.5077 30 60 31.4924 60 33.3333V56.6667C60 58.5077 58.5077 60 56.6667 60H33.3333C31.4924 60 30 58.5077 30 56.6667V33.3333ZM33.3333 56.6667V33.3333H56.6667V56.6667H33.3333Z" fill="#2C1551"/>
</svg>
