<svg width="90" height="90" viewBox="0 0 90 90" fill="none" xmlns="http://www.w3.org/2000/svg">
<circle cx="45" cy="45" r="45" fill="#FF5BB4"/>
<path fill-rule="evenodd" clip-rule="evenodd" d="M47.4895 51.5971L50.3179 58.282L52.4376 55.4025L55.7682 56.2195L53.0669 48.8436C51.5136 50.2085 49.6015 51.1789 47.4895 51.5971ZM55.5221 45.8573C56.5369 44.1081 57.1175 42.0783 57.1175 39.9134C57.1175 33.3321 51.7519 28 45.1369 28C38.5219 28 33.1563 33.3321 33.1563 39.9134C33.1563 42.1037 33.7506 44.1556 34.7875 45.9187L31.1804 55.768C30.9805 56.3138 30.9466 56.9053 31.0829 57.4684C31.4649 59.0468 33.0606 60.0108 34.6468 59.6217L36.5114 59.1643L37.7187 60.8044C38.0344 61.2333 38.4615 61.568 38.9545 61.7729C40.4575 62.3975 42.1907 61.6871 42.8257 60.1863L45.166 54.6549L47.5064 60.1863C48.1414 61.6871 49.8746 62.3975 51.3776 61.7729C51.8705 61.568 52.2977 61.2333 52.6133 60.8044L53.8207 59.1643L55.6852 59.6217C57.2715 60.0108 58.8671 59.0468 59.2492 57.4684C59.3855 56.9053 59.3516 56.3138 59.1517 55.768L55.5221 45.8573ZM34.5639 56.2195L37.251 48.8822C38.8096 50.2384 40.7248 51.1992 42.8381 51.6076L40.0141 58.282L37.8944 55.4025L34.5639 56.2195ZM45.1364 48.4956C40.3607 48.4956 36.4922 44.6512 36.4922 39.9128C36.4922 35.1744 40.3607 31.3301 45.1364 31.3301C49.9122 31.3301 53.7807 35.1744 53.7807 39.9128C53.7807 44.6512 49.9122 48.4956 45.1364 48.4956ZM44.6682 32.9961C49.1474 32.9961 52.7816 36.6076 52.7816 41.0664C52.7816 41.9862 52.0348 42.7317 51.1135 42.7317C50.1921 42.7317 49.4453 41.9862 49.4453 41.0664C49.4453 38.4505 47.3082 36.3267 44.6682 36.3267C43.7469 36.3267 43 35.5811 43 34.6614C43 33.7417 43.7469 32.9961 44.6682 32.9961Z" fill="#2C1551"/>
</svg>
