<svg width="91" height="90" viewBox="0 0 91 90" fill="none" xmlns="http://www.w3.org/2000/svg">
<circle cx="45.5" cy="45" r="45" fill="#FF8FDF"/>
<path fill-rule="evenodd" clip-rule="evenodd" d="M45.8523 28.3029L59.7608 36.3258C61.1971 37.1543 61.3357 39.172 60.1767 40.2301V53.6471C61.6836 55.3092 62.4926 56.7221 62.4926 57.9877C62.4926 60.2031 60.7628 61.9991 58.6291 61.9991C56.4954 61.9991 54.7656 60.2031 54.7656 57.9877C54.7656 56.7209 55.5761 55.3065 57.0859 53.6422V42.0767L56.318 42.5196L56.3175 51.4392C56.3175 52.0249 56.1118 52.5905 55.739 53.03C53.519 55.6471 49.8275 56.8769 44.7271 56.8769C39.6268 56.8769 35.9352 55.6471 33.7152 53.03C33.3424 52.5905 33.1367 52.0249 33.1367 51.4391L33.1372 42.5208L29.6923 40.5337C28.1026 39.6167 28.1026 37.2428 29.6923 36.3258L43.6008 28.3029C44.3009 27.899 45.1522 27.899 45.8523 28.3029ZM32.4062 38.4293L44.7236 45.5344L57.0411 38.4293L44.7236 31.3242L32.4062 38.4293ZM58.1877 57.32C57.952 57.6994 57.8594 57.9483 57.8594 57.9896C57.8594 58.4326 58.2053 58.7918 58.6321 58.7918C59.0588 58.7918 59.4048 58.4326 59.4048 57.9896C59.4048 57.9483 59.3121 57.6994 59.0765 57.32C58.9549 57.1243 58.8065 56.9123 58.6321 56.6855C58.4576 56.9123 58.3092 57.1243 58.1877 57.32ZM44.7297 48.8899C45.3842 48.8901 46.0301 48.7178 46.6069 48.3851L53.2301 44.5646L53.2297 51.1254C51.657 52.7906 48.8534 53.6689 44.7301 53.6689C40.6067 53.6689 37.8032 52.7906 36.2305 51.1254L36.2308 44.5645L42.8543 48.3851C43.4306 48.7175 44.0759 48.8898 44.7297 48.8899Z" fill="#2C1551"/>
</svg>
