<svg width="91" height="90" viewBox="0 0 91 90" fill="none" xmlns="http://www.w3.org/2000/svg">
<circle cx="45.5" cy="45" r="45" fill="#FF8787"/>
<path fill-rule="evenodd" clip-rule="evenodd" d="M38.4142 42.6253C41.3483 42.6253 43.7269 40.2468 43.7269 37.3127C43.7269 34.3786 41.3483 32 38.4142 32C35.4801 32 33.1016 34.3786 33.1016 37.3127C33.1016 40.2468 35.4801 42.6253 38.4142 42.6253ZM38.4142 39.7919C39.7835 39.7919 40.8935 38.6819 40.8935 37.3127C40.8935 35.9434 39.7835 34.8334 38.4142 34.8334C37.045 34.8334 35.935 35.9434 35.935 37.3127C35.935 38.6819 37.045 39.7919 38.4142 39.7919Z" fill="#2C1551"/>
<path fill-rule="evenodd" clip-rule="evenodd" d="M57.8949 37.3127C57.8949 40.2468 55.5163 42.6253 52.5822 42.6253C49.648 42.6253 47.2695 40.2468 47.2695 37.3127C47.2695 34.3786 49.648 32 52.5822 32C55.5163 32 57.8949 34.3786 57.8949 37.3127ZM55.0614 37.3127C55.0614 38.6819 53.9514 39.7919 52.5822 39.7919C51.2129 39.7919 50.103 38.6819 50.103 37.3127C50.103 35.9434 51.2129 34.8334 52.5822 34.8334C53.9514 34.8334 55.0614 35.9434 55.0614 37.3127Z" fill="#2C1551"/>
<path fill-rule="evenodd" clip-rule="evenodd" d="M50.398 47.8332C51.0986 47.6698 51.8295 47.5834 52.5816 47.5834C55.3892 47.5834 57.9118 48.79 59.6652 50.7219V53.2503H51.1649C51.1649 54.2825 50.8889 55.2502 50.4068 56.0837H59.6652C61.2301 56.0837 62.4986 54.8152 62.4986 53.2503V50.6531C62.4986 50.0391 62.3072 49.4348 61.9023 48.9734C59.6303 46.3843 56.2968 44.75 52.5816 44.75C51.0609 44.75 49.6041 45.0238 48.2578 45.5249C48.8319 46.0114 49.3691 46.5396 49.8648 47.1044C50.0688 47.3369 50.2459 47.5812 50.398 47.8332Z" fill="#2C1551"/>
<path fill-rule="evenodd" clip-rule="evenodd" d="M45.5005 56.0837C47.0654 56.0837 48.3339 54.8152 48.3339 53.2503V50.6531C48.3339 50.0391 48.1425 49.4348 47.7376 48.9734C47.0763 48.2198 46.325 47.547 45.5005 46.972C43.4926 45.5714 41.0507 44.75 38.417 44.75C34.7018 44.75 31.3683 46.3843 29.0963 48.9734C28.6914 49.4348 28.5 50.0391 28.5 50.6531V53.2503C28.5 54.8152 29.7686 56.0837 31.3334 56.0837H45.5005ZM38.417 47.5834C41.2247 47.5834 43.7472 48.79 45.5005 50.7219V53.2503H31.3334V50.7219C33.0867 48.79 35.6093 47.5834 38.417 47.5834ZM31.3337 50.6459C31.3337 50.6461 31.3337 50.6455 31.3337 50.6459V50.6459Z" fill="#2C1551"/>
</svg>
