<svg width="107" height="21" viewBox="0 0 107 21" fill="none" xmlns="http://www.w3.org/2000/svg">
<path d="M10.0135 0L12.2617 6.91917H19.5369L13.6511 11.1954L15.8993 18.1146L10.0135 13.8383L4.12772 18.1146L6.37589 11.1954L0.490096 6.91917H7.76534L10.0135 0Z" fill="#F7B933"/>
<path d="M31.5811 0L33.8293 6.91917H41.1046L35.2188 11.1954L37.4669 18.1146L31.5811 13.8383L25.6953 18.1146L27.9435 11.1954L22.0577 6.91917H29.333L31.5811 0Z" fill="#F7B933"/>
<path d="M74.7162 0L76.9643 6.91917H84.2396L78.3538 11.1954L80.6019 18.1146L74.7162 13.8383L68.8304 18.1146L71.0785 11.1954L65.1927 6.91917H72.468L74.7162 0Z" fill="#F7B933"/>
<path d="M53.1488 0L55.3969 6.91917H62.6722L56.7864 11.1954L59.0346 18.1146L53.1488 13.8383L47.263 18.1146L49.5111 11.1954L43.6253 6.91917H50.9006L53.1488 0Z" fill="#F7B933"/>
<path d="M96.2838 0L98.532 6.91917H105.807L99.9214 11.1954L102.17 18.1146L96.2838 13.8383L90.398 18.1146L92.6462 11.1954L86.7604 6.91917H94.0356L96.2838 0Z" fill="#F7B933"/>
</svg>
